<?xml version="1.0" encoding="utf-8"?>
<!-- Generator: Adobe Illustrator 15.0.2, SVG Export Plug-In  -->
<!DOCTYPE svg PUBLIC "-//W3C//DTD SVG 1.1//EN" "http://www.w3.org/Graphics/SVG/1.1/DTD/svg11.dtd" [
	<!ENTITY ns_flows "http://ns.adobe.com/Flows/1.0/">
]>
<svg version="1.1"
	 xmlns="http://www.w3.org/2000/svg" xmlns:xlink="http://www.w3.org/1999/xlink" xmlns:a="http://ns.adobe.com/AdobeSVGViewerExtensions/3.0/"
	 x="0px" y="0px" width="1032px" height="431px" viewBox="0.0021973 53.5664062 1032 431"
	 overflow="visible" enable-background="new 0.0021973 53.5664062 1032 431" xml:space="preserve">
<defs>
</defs>
<path fill="#8FD3C8" d="M511.9980469,210.4082031c0-32.2070312-26.2011719-58.4047852-58.4042969-58.4047852
	c-14.5615234,0-27.8828125,5.3676758-38.1230469,14.2167969c-39.65625-25.7387695-90.9882812-40.7641602-145.9238281-42.8959961
	L298.5693359,28.6875l84.4365234,18.9018555c-0.0019531,0.2280273-0.0332031,0.4477539-0.0332031,0.6757812
	c0,26.6132812,21.6542969,48.2661133,48.265625,48.2661133c26.6123047,0,48.2666016-21.6518555,48.2666016-48.2661133
	C479.5048828,21.6513672,457.8525391,0,431.2382812,0c-20,0-37.1904297,12.2294922-44.5058594,29.6010742L294.2919922,8.9072266
	c-4.6845703-1.0488281-9.3828125,1.6811523-10.7890625,6.2709961l-33.1064453,107.9438477
	c-57.9169922,0.9291992-112.3076172,16.1220703-153.8720703,43.1000977
	c-10.2373047-8.8481445-23.5625-14.2167969-38.1230469-14.2167969C26.1992188,152.0053711,0,178.2041016,0,210.4101562
	c0,21.1220703,11.2705078,39.6591797,28.1132812,49.9179688c-0.8603516,5.484375-1.3134766,11.03125-1.3134766,16.6328125
	c0,41.8554688,24.3554688,80.9335938,68.5771484,110.0234375c43.0371094,28.3125,100.078125,43.9101562,160.6210938,43.9101562
	c60.5371094,0,117.5820312-15.6005859,160.6191406-43.9101562c44.2236328-29.0917969,68.5761719-68.1679688,68.5761719-110.0234375
	c0-5.6015625-0.4511719-11.1455078-1.3125-16.6328125C500.7246094,250.0683594,511.9980469,231.5292969,511.9980469,210.4082031z
	 M431.2363281,18.3681641c16.484375,0,29.8964844,13.4101562,29.8964844,29.8959961
	c0,16.4819336-13.4121094,29.8959961-29.8964844,29.8959961c-16.4814453,0-29.8955078-13.4140625-29.8955078-29.8959961
	C401.3398438,31.7792969,414.7519531,18.3681641,431.2363281,18.3681641z M18.3662109,210.4082031
	c0-22.0761719,17.9589844-40.0361328,40.0332031-40.0361328c8.359375,0,16.1220703,2.5830078,22.5488281,6.9780273
	c-23.5126953,18.578125-39.8330078,40.3803711-48.0380859,63.9038086
	C24.0351562,233.90625,18.3662109,222.8085938,18.3662109,210.4082031z M255.9980469,412.5234375
	c-116.2519531,0-210.8291016-60.8125-210.8291016-135.5644531c0-3.2128906,0.1865234-6.3955078,0.5302734-9.5546875
	c0.6669922-6.1113281,1.9560547-12.1152344,3.8457031-17.9824219c7.0615234-21.9140625,22.3730469-41.9082031,43.7509766-58.5766602
	c4.7412109-3.7006836,9.7919922-7.2290039,15.1054688-10.5830078
	c38.0615234-24.0200195,90.1787109-38.8608398,147.5966797-38.8608398c57.4140625,0,109.5332031,14.8427734,147.5917969,38.8608398
	c5.3134766,3.3540039,10.3671875,6.8833008,15.1064453,10.5830078
	c21.3789062,16.6665039,36.6914062,36.6625977,43.7519531,58.5766602
	c1.8916016,5.8671875,3.1806641,11.8710938,3.8466797,17.9824219c0.3457031,3.15625,0.5283203,6.3417969,0.5283203,9.5546875
	C466.8232422,351.7109375,372.2480469,412.5234375,255.9980469,412.5234375z M479.0859375,241.2558594
	c-8.203125-23.5224609-24.5273438-45.3276367-48.0390625-63.9047852c6.4257812-4.3950195,14.1875-6.9780273,22.546875-6.9780273
	c22.0761719,0,40.0351562,17.9589844,40.0351562,40.0361328C493.6289062,222.8085938,487.9628906,233.90625,479.0859375,241.2558594
	z"/>
<path fill="#8FD3C8" d="M325.9726562,335.703125c-17.40625,14.2695312-38.9882812,20.6328125-69.9746094,20.6328125
	c-30.9892578,0-52.5703125-6.3632812-69.9794922-20.6328125c-4.1171875-3.375-10.1943359-2.7714844-13.5683594,1.34375
	c-3.3769531,4.1191406-2.7753906,10.1953125,1.34375,13.5722656c20.8095703,17.0605469,46.9296875,25.0039062,82.2041016,25.0039062
	c35.2734375,0,61.3925781-7.9433594,82.203125-25.0039062c4.1171875-3.3769531,4.7216797-9.453125,1.3447266-13.5722656
	C336.1630859,332.9238281,330.0898438,332.328125,325.9726562,335.703125z"/>
<path fill="#8FD3C8" d="M214.1162109,249.4570312c0-19.1835938-15.5517578-34.734375-34.7353516-34.734375
	c-19.1875,0-34.7402344,15.5507812-34.7402344,34.734375c0,19.1894531,15.5537109,34.7421875,34.7402344,34.7421875
	C198.5644531,284.1972656,214.1162109,268.6464844,214.1162109,249.4570312z"/>
<path fill="#8FD3C8" d="M334.2597656,214.7226562c-19.1894531,0-34.7421875,15.5507812-34.7421875,34.734375
	c0,19.1894531,15.5527344,34.7421875,34.7421875,34.7421875c19.1835938,0,34.7382812-15.5527344,34.7382812-34.7421875
	C368.9980469,230.2734375,353.4433594,214.7226562,334.2597656,214.7226562z"/>
<path fill="#D0DD71" d="M548.1152344,260.328125c-0.8613281,5.4882812-1.3125,11.03125-1.3125,16.6328125
	c0,41.8554688,24.3525391,80.9316406,68.5761719,110.0234375c43.0371094,28.3105469,100.0820312,43.9101562,160.6191406,43.9101562
	c60.5429688,0,117.5839844-15.5976562,160.6210938-43.9101562c44.2216797-29.0898438,68.5771484-68.1679688,68.5771484-110.0234375
	c0-5.6015625-0.453125-11.1484375-1.3134766-16.6328125c16.8427734-10.2578125,28.1132812-28.7949219,28.1132812-49.9179688
	c0-32.2055664-26.1992188-58.4042969-58.4013672-58.4042969c-14.5605469,0-27.8857422,5.3686523-38.1230469,14.2167969
	c-41.5644531-26.9780273-95.9550781-42.1708984-153.8720703-43.1000977L748.4931641,15.1787109
	c-1.40625-4.5898438-6.1044922-7.3198242-10.7890625-6.2709961l-92.4404297,20.6938477
	c-7.3154297-17.371582-24.5058594-29.6010742-44.5058594-29.6010742c-26.6142578,0-48.2666016,21.6513672-48.2666016,48.2651367
	c0,26.6142578,21.6542969,48.2661133,48.2666016,48.2661133c26.6113281,0,48.265625-21.652832,48.265625-48.2661133
	c0-0.2280273-0.03125-0.4477539-0.0332031-0.6757812l84.4365234-18.9018555l29.0224609,94.6367188
	c-54.9355469,2.1318359-106.2675781,17.1572266-145.9238281,42.8959961
	c-10.2402344-8.8491211-23.5615234-14.2167969-38.1230469-14.2167969c-32.203125,0-58.4042969,26.1977539-58.4042969,58.4042969
	C519.9980469,231.5292969,531.2714844,250.0683594,548.1152344,260.328125z M630.6552734,48.2646484
	c0,16.4819336-13.4140625,29.8959961-29.8955078,29.8959961c-16.484375,0-29.8964844-13.4140625-29.8964844-29.8959961
	c0-16.4858398,13.4121094-29.8959961,29.8964844-29.8959961S630.65625,31.7797852,630.6552734,48.2646484z M999.0859375,241.2539062
	c-8.2050781-23.5234375-24.5253906-45.3251953-48.0380859-63.9033203
	c6.4267578-4.3950195,14.1894531-6.9780273,22.5488281-6.9780273c22.0742188,0,40.0332031,17.9599609,40.0332031,40.0356445
	C1013.6298828,222.8085938,1007.9609375,233.90625,999.0859375,241.2539062z M565.1728516,276.9589844
	c0-3.2128906,0.1826172-6.3984375,0.5283203-9.5546875c0.6660156-6.1113281,1.9550781-12.1152344,3.8466797-17.9824219
	c7.0605469-21.9140625,22.3730469-41.9091797,43.7519531-58.5761719c4.7392578-3.699707,9.7929688-7.2290039,15.1064453-10.5830078
	c38.0585938-24.0180664,90.1777344-38.8608398,147.5917969-38.8608398c57.4179688,0,109.5351562,14.8408203,147.5966797,38.8608398
	c5.3134766,3.3540039,10.3642578,6.8823242,15.1054688,10.5830078
	c21.3779297,16.6679688,36.6894531,36.6621094,43.7509766,58.5761719
	c1.8896484,5.8671875,3.1787109,11.8710938,3.8457031,17.9824219c0.34375,3.1601562,0.5302734,6.3417969,0.5302734,9.5546875
	c0,74.7519531-94.5771484,135.5644531-210.8291016,135.5644531
	C659.7480469,412.5234375,565.1728516,351.7109375,565.1728516,276.9589844z M538.3671875,210.4101562
	c0-22.0776367,17.9589844-40.0366211,40.0351562-40.0366211c8.359375,0,16.1210938,2.5830078,22.546875,6.9780273
	c-23.5117188,18.5771484-39.8359375,40.3828125-48.0390625,63.9042969
	C544.0332031,233.90625,538.3671875,222.8085938,538.3671875,210.4101562z"/>
<path fill="#D0DD71" d="M692.4501953,337.046875c-3.3769531,4.1191406-2.7724609,10.1953125,1.3447266,13.5722656
	c20.8105469,17.0605469,46.9296875,25.0039062,82.203125,25.0039062c35.2744141,0,61.3945312-7.9433594,82.2041016-25.0039062
	c4.1191406-3.3769531,4.7207031-9.453125,1.34375-13.5722656c-3.3740234-4.1152344-9.4511719-4.71875-13.5683594-1.34375
	c-17.4091797,14.2695312-38.9902344,20.6328125-69.9794922,20.6328125c-30.9863281,0-52.5683594-6.3632812-69.9746094-20.6328125
	C701.90625,332.328125,695.8330078,332.9238281,692.4501953,337.046875z"/>
<path fill="#D0DD71" d="M852.6152344,284.1992188c19.1865234,0,34.7402344-15.5527344,34.7402344-34.7421875
	c0-19.1835938-15.5527344-34.7333984-34.7402344-34.7333984c-19.1835938,0-34.7353516,15.5498047-34.7353516,34.7333984
	C817.8798828,268.6464844,833.4316406,284.1972656,852.6152344,284.1992188z"/>
<path fill="#D0DD71" d="M662.9980469,249.4570312c0,19.1894531,15.5546875,34.7421875,34.7382812,34.7421875
	c19.1894531,0,34.7421875-15.5527344,34.7421875-34.7421875c0-19.1835938-15.5527344-34.7333984-34.7421875-34.7333984
	C678.5527344,214.7236328,662.9980469,230.2734375,662.9980469,249.4570312z"/>
</svg>
